<svg width="36" height="42" viewBox="0 0 36 42" fill="none" xmlns="http://www.w3.org/2000/svg">
<path fill-rule="evenodd" clip-rule="evenodd" d="M36 18V0H35V17H5V0H4V18H36ZM36 34L26 24H4V42H5V25H25V35H35V42H36V34ZM26 34V25.415L34.586 34H26Z" fill="#D8D8D8"/>
<path fill-rule="evenodd" clip-rule="evenodd" d="M24 28H8V29H24V28ZM8 32H24V33H8V32ZM8 36H32V37H8V36Z" fill="#C08208"/>
<path fill-rule="evenodd" clip-rule="evenodd" d="M26 4H8V5H26V4ZM8 8H32V9H8V8ZM8 12H32V13H8V12Z" fill="#BABDC9"/>
<path fill-rule="evenodd" clip-rule="evenodd" d="M4 21L0 18V24L4 21Z" fill="#666666"/>
</svg>
